<svg xmlns="http://www.w3.org/2000/svg" viewBox="-8 -8.25 16 16">
	<path d="M0-8A1 1 0 000 7.5 1 1 0 000-8Z" stroke="#000" stroke-width=".5" fill="#ff5"/>
	<path d="M-5.85-.7Q-5.85-.77-5.76-.77C-5.36-.77-4.83-1.21-4.85-1.68L-4.86-2.89C-4.84-3.67-3.93-4.76-2.92-4.79Q-2.79-4.81-2.79-4.65L-2.8-3.8Q-2.8-3.75-2.92-3.75C-3.54-3.72-3.81-3.32-3.85-2.77L-3.85-1.44C-3.89-.94-4.17-.59-4.53-.32Q-4.57-.28-4.53-.23C-4.12.07-3.85.39-3.86.88L-3.87 2.39C-3.87 2.86-3.43 3.19-2.88 3.22Q-2.81 3.22-2.81 3.28L-2.82 4.17Q-2.82 4.28-2.9 4.28C-3.75 4.31-4.83 3.4-4.86 2.52L-4.85.96C-4.85.51-5.47.27-5.79.26Q-5.85.26-5.85.21ZM5.9.28Q5.9.34 5.84.34C5.23.37 4.96.81 4.95 1.15L4.94 2.52C4.94 3.43 4.06 4.32 2.96 4.35Q2.92 4.35 2.92 4.29L2.92 3.41Q2.92 3.35 2.98 3.35C3.45 3.35 3.96 2.88 3.96 2.22L3.94.99C3.94.61 4.23.1 4.58-.12Q4.61-.14 4.58-.18C4.16-.44 3.93-.98 3.94-1.38L3.92-2.72C3.92-3.23 3.41-3.69 2.98-3.71Q2.91-3.71 2.91-3.77L2.9-4.61Q2.9-4.68 2.97-4.68C4.05-4.6 4.9-3.78 4.91-2.87L4.91-1.39C4.91-1.11 5.41-.67 5.86-.65Q5.9-.65 5.9-.61ZM-1.2 4.4Q-1.8 4.2-1.6 3.3C-1.35 2.0467-1.44 1.41-.55-1.32Q-.35-2.12.25-2.62-.15-2.92-.05-3.42C.05-4.22.65-4.12 1.15-5.12 1.2-5.22 1.28-5.19 1.25-5.12.8833-4.2867 1.35-3.82 1.25-3.22Q1.25-2.62.65-2.52.95-2.02.85-1.02.15 2.38-.3 3.7-.6 4.6-1.2 4.4ZM.04-1.65C.12-1.85.2-1.98.34-2.2.42-2.31.35-2.33.34-2.34Q.3-2.37.25-2.37C.16-2.38.13-2.34.1-2.31Q-.13-2.02-.27-1.66C-.3-1.61-.28-1.56-.19-1.54L-.12-1.52C-.04-1.49 0-1.57.04-1.65Z" fill="#000"/>
</svg>