<svg xmlns="http://www.w3.org/2000/svg" viewBox="-0.4 -8.4 20.8 20.8">
	<path d="M0 2A1 1 0 0020 2 1 1 0 000 2" stroke="#000" stroke-width=".5" fill="#ff5"/>
	<path d="M3.5 2C4 1 5 0 5-2Q6-3 6.25-2 6.25 0 5.25 2 6.25 4 6.25 6 6 7 5 6C5 4 4 3 3.5 2M16.5 2C16 3 15 4 15 6Q14 7 13.75 6 13.75 4 14.75 2 13.75 0 13.75-2 14-3 15-2C15 0 16 .6667 16.5 2M10.75 6.75Q10.75 7.25 10 7.25 9.25 7.25 9.25 6.75L9.25 2.35Q9.25 1.5 9.65.25 10-.75 8.75-1.75 10-2.75 9.9-3.7C9.9-3.8 10.1-3.8 10.1-3.7Q10-2.75 11.25-1.75 10-.75 10.35.25 10.75 1.5 10.75 2.35Z" fill="#000"/>
</svg>