<svg xmlns="http://www.w3.org/2000/svg" viewBox="-8 -8.25 16 16">
	<path d="M0-8A1 1 0 000 7.5 1 1 0 000-8Z" stroke="#000" stroke-width=".5" fill="#ff5"/>
	<path d="M-5.94-.59-5.94.07Q-5.94.18-5.86.21L-2.53 1.7Q-2.42 1.74-2.42 1.61L-2.42.83Q-2.42.76-2.5.73L-4.84-.2C-4.88-.21-4.88-.27-4.84-.28L-2.48-1.17Q-2.42-1.19-2.42-1.29L-2.42-2.11Q-2.42-2.17-2.51-2.13L-5.88-.68Q-5.94-.65-5.94-.59ZM5.89.22 2.5 1.7Q2.4 1.7 2.4 1.6L2.39.81Q2.39.77 2.46.76L4.85-.18C4.88-.19 4.88-.24 4.85-.25L2.43-1.18Q2.39-1.2 2.39-1.25L2.39-2.07Q2.39-2.16 2.48-2.12L5.87-.64Q5.93-.61 5.93-.57L5.93.17Q5.93.21 5.89.23ZM-1.2 4.4Q-1.8 4.2-1.6 3.3C-1.35 2.0467-1.44 1.41-.55-1.32Q-.35-2.12.25-2.62-.15-2.92-.05-3.42C.05-4.22.65-4.12 1.15-5.12 1.2-5.22 1.28-5.19 1.25-5.12.8833-4.2867 1.35-3.82 1.25-3.22Q1.25-2.62.65-2.52.95-2.02.85-1.02.15 2.38-.3 3.7-.6 4.6-1.2 4.4ZM.04-1.65C.12-1.85.2-1.98.34-2.2.42-2.31.35-2.33.34-2.34Q.3-2.37.25-2.37C.16-2.38.13-2.34.1-2.31Q-.13-2.02-.27-1.66C-.3-1.61-.28-1.56-.19-1.54L-.12-1.52C-.04-1.49-0-1.57.04-1.65Z" fill="#000"/>
</svg>