<svg xmlns="http://www.w3.org/2000/svg" viewBox="-8 -8 17.2 17.25">
    <path d="M-3-7Q-2-8-1-8L2-8Q3-8 4-7 5-6 6-6L7-6C8-6 9-5 9-4L9-1Q9 0 7.5 0L5.4 0Q4 0 3.8-1C3.6-1.9 3.1-2.8 1.8-3.3-0-4-3-3-3 0-3 3-1 4 0 4Q1 4 1 5L1 6Q1 7 0 7L-6 7C-7 7-8 6-8 5L-8-4C-8-5-7-6-6-6L-5-6Q-4-6-3-7ZM3 .25A1 1 0 00-2 .25 1 1 0 003 .25ZM3.5 4.35Q2.6 4.35 2.6 5.35L2.6 8.35Q2.6 9.25 3.5 9.25L8.4 9.25Q9.2 9.25 9.2 8.35L9.2 4.95Q9.2 4.25 8.2 4.25L8.2 2.65C8.2.65 3.5.65 3.5 2.65ZM4.5 2.7C4.5 1.7 7.2 1.7 7.2 2.7L7.2 4.2 4.5 4.2Z" fill="#aaa"/>
</svg>